<svg width="24" height="23" viewBox="0 0 24 23" fill="none" xmlns="http://www.w3.org/2000/svg">
<path fill-rule="evenodd" clip-rule="evenodd" d="M23.6278 4.88824C23.1733 4.15278 22.3859 3.71447 21.5216 3.71447H5.67324L4.90929 0.912522C4.76195 0.373923 4.27288 0 3.71447 0H1.23816C0.553456 0 0 0.554694 0 1.23816C0 1.92162 0.553456 2.47631 1.23816 2.47631H2.76852L6.23412 15.1835C6.38146 15.7221 6.87053 16.096 7.42894 16.096H18.5724C19.0416 16.096 19.47 15.8311 19.6805 15.4113L23.7367 7.2977C24.123 6.52385 24.0822 5.62371 23.6278 4.88824ZM6.80986 18.5724C5.78467 18.5724 4.95263 19.4032 4.95263 20.4296C4.95263 21.456 5.78467 22.2868 6.80986 22.2868C7.83506 22.2868 8.6671 21.456 8.6671 20.4296C8.6671 19.4032 7.83506 18.5724 6.80986 18.5724ZM17.3342 20.4296C17.3342 19.4032 18.1662 18.5724 19.1914 18.5724C20.2166 18.5724 21.0487 19.4032 21.0487 20.4296C21.0487 21.456 20.2166 22.2868 19.1914 22.2868C18.1662 22.2868 17.3342 21.456 17.3342 20.4296Z" fill="#96D328"/>
</svg>
